<svg width="29" height="15" viewBox="0 0 29 15" fill="none" xmlns="http://www.w3.org/2000/svg">
<path d="M14.6884 1.02271H14.187V14.5207H14.6884V1.02271Z" fill="white"/>
<path d="M21.1865 7.5213H7.68848V8.02264H21.1865V7.5213Z" fill="white"/>
<path d="M28.6245 7.5213H0.250977V8.02264H28.6245V7.5213Z" fill="white"/>
<path d="M14.4374 14.7717C10.6117 14.7717 7.01077 14.061 4.29811 12.7703C1.52624 11.452 0 9.67678 0 7.77167C0 5.86655 1.52624 4.09199 4.29811 2.77301C7.01077 1.4823 10.6117 0.771667 14.4374 0.771667C18.2631 0.771667 21.8641 1.4823 24.5767 2.77301C27.3486 4.09132 28.8748 5.86655 28.8748 7.77167C28.8748 9.67678 27.3486 11.452 24.5767 12.7703C21.8641 14.061 18.2631 14.7717 14.4374 14.7717ZM14.4374 1.27369C6.75303 1.27369 0.501347 4.1889 0.501347 7.77234C0.501347 11.3558 6.75303 14.271 14.4374 14.271C22.1218 14.271 28.3735 11.3558 28.3735 7.77234C28.3735 4.1889 22.1218 1.27369 14.4374 1.27369Z" fill="white"/>
<path d="M14.4373 14.7717C10.578 14.7717 7.43799 11.6317 7.43799 7.77234C7.43799 3.91298 10.578 0.77301 14.4373 0.77301C18.2967 0.77301 21.4366 3.91298 21.4366 7.77234C21.4366 11.6317 18.2967 14.7717 14.4373 14.7717ZM14.4373 1.27369C10.8539 1.27369 7.93866 4.18889 7.93866 7.77234C7.93866 11.3558 10.8539 14.271 14.4373 14.271C18.0208 14.271 20.936 11.3558 20.936 7.77234C20.936 4.18889 18.0208 1.27369 14.4373 1.27369Z" fill="white"/>
<path d="M14.4375 14.7717C8.12391 14.7717 2.9873 11.6317 2.9873 7.77234C2.9873 3.91298 8.12391 0.77301 14.4375 0.77301C20.7511 0.77301 25.8877 3.91298 25.8877 7.77234C25.8877 11.6317 20.7511 14.7717 14.4375 14.7717ZM14.4375 1.27369C8.40049 1.27369 3.48865 4.18889 3.48865 7.77234C3.48865 11.3558 8.40049 14.271 14.4375 14.271C20.4745 14.271 25.3864 11.3558 25.3864 7.77234C25.3864 4.18889 20.4745 1.27369 14.4375 1.27369Z" fill="white"/>
</svg>
