<svg width="20" height="14" viewBox="0 0 20 14" fill="none" xmlns="http://www.w3.org/2000/svg">
<path d="M-1.23405e-07 3.27967C-4.61613e-08 1.51253 5.08418 0.456481 9.99965 0.456481C14.9151 0.456482 20 1.51253 20 3.27967C20 5.0468 14.9158 6.10285 9.99965 6.10285C5.0835 6.10285 -2.00649e-07 5.0468 -1.23405e-07 3.27967ZM19.6188 3.27967C19.6188 2.10066 15.754 0.838325 10.0003 0.838325C4.24672 0.838325 0.381834 2.10066 0.381834 3.27967C0.381834 4.45867 4.24672 5.72101 10.0003 5.72101C15.754 5.72101 19.6188 4.45867 19.6188 3.27967Z" fill="white"/>
<path d="M-1.23405e-07 5.9123C-4.61613e-08 4.14516 5.08418 3.08911 9.99965 3.08911C14.9151 3.08911 20 4.14516 20 5.9123C20 7.67943 14.9158 8.73548 9.99965 8.73548C5.0835 8.73548 -2.00649e-07 7.67943 -1.23405e-07 5.9123ZM19.6188 5.9123C19.6188 4.73329 15.754 3.47095 10.0003 3.47095C4.24672 3.47095 0.381834 4.73329 0.381834 5.9123C0.381834 7.0913 4.24672 8.35364 10.0003 8.35364C15.754 8.35364 19.6188 7.0913 19.6188 5.9123Z" fill="white"/>
<path d="M-1.23405e-07 8.54413C-4.61613e-08 6.77699 5.08418 5.72095 9.99965 5.72095C14.9151 5.72095 20 6.77699 20 8.54413C20 10.3113 14.9158 11.3673 9.99965 11.3673C5.0835 11.3673 -2.00649e-07 10.3113 -1.23405e-07 8.54413ZM19.6188 8.54413C19.6188 7.36513 15.754 6.10279 10.0003 6.10279C4.24672 6.10279 0.381834 7.36513 0.381834 8.54413C0.381834 9.72313 4.24672 10.9855 10.0003 10.9855C15.754 10.9855 19.6188 9.72313 19.6188 8.54413Z" fill="white"/>
<path d="M-1.23405e-07 11.1768C-4.61613e-08 9.40969 5.08418 8.35364 9.99965 8.35364C14.9151 8.35364 20 9.40969 20 11.1768C20 12.944 14.9158 14 9.99965 14C5.0835 14 -2.00649e-07 12.944 -1.23405e-07 11.1768ZM19.6188 11.1768C19.6188 9.99782 15.754 8.73548 10.0003 8.73548C4.24672 8.73548 0.381834 9.99782 0.381834 11.1768C0.381834 12.3558 4.24672 13.6182 10.0003 13.6182C15.754 13.6182 19.6188 12.3558 19.6188 11.1768Z" fill="white"/>
</svg>
